<?xml version="1.0" standalone="no"?><!DOCTYPE svg PUBLIC "-//W3C//DTD SVG 1.1//EN" "http://www.w3.org/Graphics/SVG/1.1/DTD/svg11.dtd"><svg t="1678607664035" class="icon" viewBox="0 0 1024 1024" version="1.1" xmlns="http://www.w3.org/2000/svg" p-id="9553" width="128" height="128" xmlns:xlink="http://www.w3.org/1999/xlink"><path d="M1014.369493 227.2L923.91616 136.746667a31.786667 31.786667 0 0 0-45.226667 0L471.43616 544a30.08 30.08 0 0 0-7.04 10.666667l-60.373333 150.826666a32.213333 32.213333 0 0 0 7.04 34.56 31.786667 31.786667 0 0 0 22.613333 9.386667 29.013333 29.013333 0 0 0 11.946667-2.346667L597.51616 686.933333a30.506667 30.506667 0 0 0 10.666667-7.253333l406.186666-407.253333a31.786667 31.786667 0 0 0 0-45.226667z m-446.08 401.066667l-45.226666-45.226667L901.302827 204.586667l45.226666 45.226666z" fill="#ffffff" p-id="9554" data-spm-anchor-id="a313x.7781069.0.i24" class=""></path><path d="M778.849493 167.04a42.666667 42.666667 0 0 0 42.666667-42.666667V42.666667a42.666667 42.666667 0 0 0-42.666667-42.666667h-682.666666a42.666667 42.666667 0 0 0-42.666667 42.666667v138.666666h-21.333333a32 32 0 0 0 0 64h21.333333v85.333334h-21.333333a32 32 0 0 0 0 64h21.333333v85.333333h-21.333333a32 32 0 0 0 0 64h21.333333v85.333333h-21.333333a32 32 0 0 0 0 64h21.333333v85.333334h-21.333333a32 32 0 0 0 0 64h21.333333V981.333333a42.666667 42.666667 0 0 0 42.666667 42.666667h682.666666a42.666667 42.666667 0 0 0 42.666667-42.666667V645.333333a42.666667 42.666667 0 0 0-85.333333 0V938.666667h-597.333334v-96h17.706667a32 32 0 0 0 0-64H138.849493v-85.333334h17.706667a32 32 0 0 0 0-64H138.849493v-85.333333h17.706667a32 32 0 0 0 0-64H138.849493v-85.333333h17.706667a32 32 0 0 0 0-64H138.849493v-85.333334h17.706667a32 32 0 0 0 0-64H138.849493V85.333333h597.333334v39.04a42.666667 42.666667 0 0 0 42.666666 42.666667z" fill="#ffffff" p-id="9555" data-spm-anchor-id="a313x.7781069.0.i22" class=""></path></svg>